PathFileType	4	(X/Y/Z)	./resultDataOpenSim/trcMotMarkerGrf/sub06/qtm-02-05.trc
DataRate	CameraRate	NumFrames	NumMarkers	Units	OrigDataRate	OrigDataStartFrame	OrigNumFrames
250.000000	250.000000	9	24	m	250.000000	364	484
Frame#	Time	L.Toe.Tip			R.Toe.Tip			L.Ankle.Lat			R.Ankle.Lat			L.Ankle.Med			R.Ankle.Med			L.Heel			R.Heel			L.Knee.Lat			R.Knee.Lat			L.Knee.Med			R.Knee.Med			L.Thigh.Upper			R.Thigh.Upper			L.ASIS			R.ASIS			V.Sacral			L.Acromium			R.Acromium			C7			L.Elbow			R.Elbow			L.Wrist.Lat			R.Wrist.Lat
		X1	Y1	Z1	X2	Y2	Z2	X3	Y3	Z3	X4	Y4	Z4	X5	Y5	Z5	X6	Y6	Z6	X7	Y7	Z7	X8	Y8	Z8	X9	Y9	Z9	X10	Y10	Z10	X11	Y11	Z11	X12	Y12	Z12	X13	Y13	Z13	X14	Y14	Z14	X15	Y15	Z15	X16	Y16	Z16	X17	Y17	Z17	X18	Y18	Z18	X19	Y19	Z19	X20	Y20	Z20	X21	Y21	Z21	X22	Y22	Z22	X23	Y23	Z23	X24	Y24	Z24

364	1.452	1.4170226	0.10919515	-0.079193091	0.82848772	0.034840608	0.079510087	1.289477	0.0953485	-0.093993115	0.69711439	0.075630302	0.10425999	1.2932969	0.11260839	-0.010482401	0.72221225	0.096769035	0.018580542	1.236294	0.040796572	-0.042991024	0.64040596	0.064439326	0.044587022	1.1994749	0.45564488	-0.096751209	0.86345413	0.43078891	0.14364568	1.1935115	0.4449586	0.02601619	0.83805717	0.43415581	0.013437352	1.0159571	0.80299483	-0.13564483	0.94766708	0.78454001	0.20617658	1.0757227	0.84845705	-0.080441551	1.0542482	0.83854479	0.16824133	0.87348186	0.91234531	0.032003926	0.95985991	1.3219167	-0.14353129	0.98519636	1.317488	0.21702135	0.89833035	1.3534815	0.041585019	0.85934396	1.0275629	-0.18391147	1.0018367	1.001375	0.31224911	0.93799333	0.80503975	-0.25967601	1.2440776	0.94624764	0.27982524
365	1.456	1.4312167	0.11340484	-0.077922628	0.82850288	0.035028574	0.079560978	1.3040093	0.09656911	-0.093345669	0.69766477	0.07666815	0.10445059	1.3067817	0.11384226	-0.010011794	0.72293349	0.097540964	0.018749193	1.2518772	0.040629634	-0.042761066	0.64089564	0.06598396	0.044758193	1.205665	0.4536302	-0.095819973	0.8674351	0.43033157	0.1436151	1.1992969	0.44291099	0.027212915	0.84237481	0.43377202	0.013387576	1.0230664	0.80141241	-0.13572895	0.953503	0.78329118	0.20565119	1.082953	0.84695143	-0.080430691	1.0606722	0.83693393	0.16809206	0.88114415	0.91083334	0.031047626	0.9664203	1.3203515	-0.14382108	0.99136776	1.3160914	0.21690104	0.90464677	1.3520826	0.041235624	0.86543313	1.0265034	-0.18382318	1.0093703	0.99997512	0.31198166	0.94137889	0.80350579	-0.26052203	1.2518049	0.9462819	0.27880534
366	1.46	1.4447739	0.11739114	-0.076583497	0.82853966	0.035153457	0.079632873	1.3178959	0.097876674	-0.092694658	0.69828483	0.077735608	0.1047362	1.3195709	0.11496679	-0.0093972458	0.72365482	0.098371877	0.018995338	1.2667935	0.040641795	-0.042699312	0.64138198	0.067644236	0.045085925	1.2120139	0.45179416	-0.094821472	0.87156995	0.42984364	0.14359662	1.2051445	0.44100589	0.0284537	0.8467571	0.43337296	0.013394511	1.0302295	0.79985241	-0.13584139	0.95936327	0.78205364	0.20506213	1.0901795	0.84549671	-0.080400717	1.0672927	0.83537372	0.1678823	0.88933345	0.90928434	0.030271326	0.9730295	1.3188015	-0.14413438	0.9975687	1.314712	0.21674883	0.9109809	1.3507041	0.040869148	0.87164796	1.0254181	-0.18386826	1.0168546	0.99858471	0.31166259	0.94486742	0.80201397	-0.26133711	1.259481	0.94623892	0.27780871
367	1.464	1.457683	0.12112415	-0.075234602	0.82860224	0.035197659	0.079726878	1.3311257	0.099197753	-0.091986778	0.69902607	0.078809471	0.1051065	1.3316513	0.11592423	-0.0086595636	0.72439075	0.099263286	0.019309843	1.2809811	0.040782897	-0.04272169	0.64187877	0.069420655	0.045550872	1.2185219	0.45016577	-0.093783868	0.87585243	0.42932162	0.14358811	1.2110543	0.43928947	0.029723671	0.85123929	0.43295061	0.013436355	1.0374699	0.79832747	-0.13597833	0.96529334	0.78083662	0.20447753	1.0974211	0.84409993	-0.080363032	1.0741722	0.83387078	0.16763617	0.89752376	0.9078005	0.030260072	0.97968301	1.3172714	-0.1444765	1.0038049	1.3133527	0.21656682	0.91733091	1.3493467	0.040497269	0.87797799	1.0243125	-0.18403175	1.0242657	0.99719099	0.31126786	0.94847141	0.80056348	-0.26211568	1.2671015	0.94610077	0.27682349
368	1.468	1.4699314	0.12455907	-0.073953541	0.82868808	0.035156467	0.079818992	1.3436781	0.1004636	-0.091165655	0.6999335	0.079867682	0.10555868	1.3431264	0.11669085	-0.0078090263	0.72516326	0.10021726	0.019682964	1.2943826	0.04098743	-0.042700782	0.6424101	0.071309488	0.046122907	1.2251863	0.44875061	-0.092737003	0.88028707	0.4287682	0.14359456	1.217036	0.43778831	0.03099953	0.85588323	0.43248726	0.013465787	1.044797	0.79684242	-0.136131	0.97133574	0.77964625	0.2039631	1.1046902	0.84276599	-0.080321425	1.0811829	0.83240641	0.16745985	0.90557205	0.90639157	0.031101025	0.98637711	1.3157636	-0.14484696	1.0100769	1.3120159	0.21635636	0.92370498	1.3480131	0.040114412	0.88441275	1.0231917	-0.18429862	1.0315999	0.99579515	0.31079599	0.95220352	0.79914603	-0.26285627	1.2746575	0.94585191	0.27583598
369	1.472	1.4815315	0.1276241	-0.072777773	0.82879953	0.035014916	0.079868689	1.3555402	0.10161293	-0.09019953	0.70101803	0.08091335	0.10608911	1.3542158	0.11725818	-0.0068244004	0.72599353	0.10123771	0.020099527	1.3069857	0.041180092	-0.042491826	0.64299518	0.073310103	0.046773076	1.2320086	0.44754833	-0.091699175	0.88488299	0.42818882	0.14362398	1.2231039	0.4365019	0.03225166	0.86072642	0.43197278	0.013453726	1.0521997	0.79539763	-0.13628755	0.97748191	0.77848544	0.2035234	1.1119922	0.84149891	-0.080271327	1.0880366	0.83096115	0.16746671	0.91345908	0.90503304	0.032262186	0.99310951	1.3142817	-0.14524077	1.0163805	1.3107062	0.21611433	0.93011184	1.3467053	0.039711959	0.89094183	1.022061	-0.1846539	1.0388743	0.99441631	0.31027445	0.95607102	0.79775327	-0.26356369	1.2821394	0.94549629	0.27485119
370	1.476	1.4924989	0.13024551	-0.07170227	0.82893975	0.034790384	0.079860812	1.3667098	0.102583	-0.089085051	0.70221024	0.08201725	0.10666644	1.3650182	0.11763268	-0.0056971291	0.72690347	0.10232793	0.020537842	1.3188272	0.041278191	-0.041881503	0.64364941	0.075424895	0.047473482	1.2389933	0.44655608	-0.090672177	0.8896412	0.42758908	0.14368197	1.2292636	0.43540589	0.033445315	0.86574389	0.43142535	0.013422739	1.0596567	0.79399624	-0.13642651	0.98368872	0.77735529	0.20312191	1.1193312	0.84029978	-0.080212234	1.0946197	0.82953657	0.16762427	0.92104557	0.90373781	0.033036553	0.99987986	1.3128294	-0.14565919	1.0227105	1.3094299	0.21583377	0.93656138	1.3454117	0.039273078	0.89755486	1.0209257	-0.18508273	1.0461071	0.99307692	0.30972907	0.96007658	0.79638254	-0.26424149	1.2895364	0.94505525	0.27388132
371	1.48	1.5028055	0.13236191	-0.070695616	0.82910701	0.034567356	0.079829917	1.377194	0.10330748	-0.087837063	0.70337294	0.083308072	0.1072315	1.3753988	0.11786584	-0.0044500651	0.72791054	0.10349002	0.020982933	1.3299566	0.041208341	-0.040658237	0.64438846	0.077656116	0.048202682	1.2461392	0.44575544	-0.089645843	0.89455302	0.4269739	0.14377032	1.2355014	0.43446425	0.034549199	0.8708842	0.43087958	0.013420569	1.0671626	0.79265762	-0.1365345	0.98993115	0.77625214	0.20272797	1.1267127	0.83916153	-0.080150774	1.1011183	0.82815023	0.16777846	0.92817637	0.90254712	0.033058191	1.0066916	1.3114072	-0.14610815	1.0290636	1.3081928	0.21550955	0.9430647	1.3441203	0.038775026	0.90424146	1.0197908	-0.1855703	1.0533049	0.99178742	0.30915945	0.96422272	0.79503938	-0.26488586	1.2968389	0.94454747	0.27292454
372	1.484	1.5123967	0.13392763	-0.069721987	0.82929742	0.034436608	0.079826163	1.3870017	0.10372268	-0.086480702	0.70442926	0.08485595	0.10774988	1.3851489	0.11803464	-0.0031167653	0.72900555	0.10473245	0.021451918	1.3403856	0.040934376	-0.038834268	0.64522536	0.080005649	0.048953154	1.2534334	0.44510947	-0.088616918	0.89960223	0.42634731	0.14388616	1.2417881	0.43364165	0.035546194	0.87612665	0.43035257	0.013477468	1.0747319	0.79141571	-0.13662531	0.99623262	0.77516642	0.20233393	1.1341375	0.83807029	-0.080086275	1.1077262	0.82681498	0.16784047	0.93475275	0.90149396	0.032261103	1.013548	1.3100164	-0.14658705	1.0354383	1.3069982	0.21514006	0.94962364	1.3428382	0.038210083	0.91099121	1.0186617	-0.18610181	1.0604642	0.99054623	0.30855548	0.96851844	0.79373352	-0.26549129	1.3040453	0.94397515	0.27196811
